<?xml version="1.0" encoding="UTF-8"?>
<svg version="1.1" xmlns="http://www.w3.org/2000/svg" width="256" height="256">
<path d="M0 0 C1.29357422 -0.00773437 2.58714844 -0.01546875 3.91992188 -0.0234375 C22.98363826 0.01517256 22.98363826 0.01517256 27.77685547 3.49438477 C29.45512287 5.78614719 29.84165919 7.72554164 30.37890625 10.51171875 C30.58580078 11.54876953 30.79269531 12.58582031 31.00585938 13.65429688 C31.21017578 14.73775391 31.41449219 15.82121094 31.625 16.9375 C32.04155145 19.06668402 32.45949276 21.19559666 32.87890625 23.32421875 C33.07846924 24.3390332 33.27803223 25.35384766 33.48364258 26.39941406 C35.03490032 35.16404931 35.03490032 35.16404931 40.0625 42.25 C44.87422718 44.80942935 47.77162377 44.2913788 52.9375 42.75 C56.81171587 41.44363057 60.64288854 40.03530402 64.47265625 38.60546875 C65.22369629 38.32960937 65.97473633 38.05375 66.74853516 37.76953125 C68.22106636 37.22535576 69.68855087 36.66727154 71.14990234 36.09375 C75.51982473 34.46523317 78.59270865 33.74325792 83.0625 35.25 C94.31091956 44.29512088 106.72144178 64.85764407 108.45703125 79.6015625 C107.96138797 84.18503599 106.15290435 85.85531464 102.75 88.625 C102.2125415 89.0897876 101.67508301 89.5545752 101.12133789 90.03344727 C99.45422045 91.46390381 97.7643942 92.8611715 96.0625 94.25 C95.53462891 94.68199707 95.00675781 95.11399414 94.46289062 95.55908203 C92.10298416 97.48454437 89.73494319 99.39573112 87.33984375 101.27734375 C84.51674668 103.72273658 82.38345938 105.65966071 81.62890625 109.3984375 C81.62697266 110.50058594 81.62697266 110.50058594 81.625 111.625 C81.60566406 112.35460937 81.58632812 113.08421875 81.56640625 113.8359375 C82.89008739 120.27715755 87.9839992 124.22146221 92.8125 128.1875 C93.7408667 128.97290161 93.7408667 128.97290161 94.68798828 129.77416992 C97.34074401 132.01579362 100.01085561 134.21003173 102.7578125 136.3359375 C103.83675781 137.19058594 103.83675781 137.19058594 104.9375 138.0625 C105.55367187 138.52269531 106.16984375 138.98289063 106.8046875 139.45703125 C108.86524729 142.39428883 108.41416438 144.75148323 108.0625 148.25 C107.18558232 150.88921206 106.28452966 153.24673969 105.125 155.75 C104.81288574 156.43852051 104.50077148 157.12704102 104.17919922 157.83642578 C99.06699196 168.82554025 92.7514189 181.64090139 83.0625 189.25 C78.44968166 190.45464979 75.6348052 190.11192947 71.21875 188.4140625 C70.13722656 188.00929687 69.05570313 187.60453125 67.94140625 187.1875 C66.82636719 186.754375 65.71132812 186.32125 64.5625 185.875 C62.34551478 185.02921373 60.12681221 184.18791251 57.90625 183.3515625 C56.43961914 182.78429443 56.43961914 182.78429443 54.94335938 182.20556641 C50.19737479 180.63134745 47.17815517 179.87181181 42.375 181.5 C38.76167606 183.40338988 38.76167606 183.40338988 36.0625 186.25 C35.24272434 188.79419266 35.24272434 188.79419266 34.78125 191.6953125 C34.57886719 192.77296875 34.37648437 193.850625 34.16796875 194.9609375 C33.86826172 196.65089844 33.86826172 196.65089844 33.5625 198.375 C29.9417796 218.3707204 29.9417796 218.3707204 26.0625 222.25 C17.78665609 224.71884419 9.1131347 224.55327498 0.5625 224.5 C-0.67886719 224.50773438 -1.92023438 224.51546875 -3.19921875 224.5234375 C-22.65143842 224.48244231 -22.65143842 224.48244231 -27.13378906 220.10522461 C-29.22749616 216.79094409 -29.91286125 214.11624616 -30.640625 210.26953125 C-30.76814148 209.61546799 -30.89565796 208.96140472 -31.02703857 208.28752136 C-31.42753399 206.21485389 -31.8075402 204.13901886 -32.1875 202.0625 C-32.45703918 200.6566523 -32.72786026 199.25104973 -33 197.84570312 C-34.9375 187.73026163 -34.9375 187.73026163 -34.9375 185.25 C-39.00923203 185.29470619 -43.07969987 185.36509573 -47.15063477 185.45751953 C-48.53039735 185.4854389 -49.91031124 185.50679511 -51.2902832 185.52099609 C-59.39109352 185.60927227 -66.26382056 186.15188489 -73.7409668 189.4074707 C-76.81119918 190.58512681 -78.88406164 190.39503938 -81.9375 189.25 C-82.37898376 188.74261795 -82.82046753 188.2352359 -83.27532959 187.71247864 C-85.56517498 185.69773338 -87.012154 185.88972543 -90.03222656 185.9128418 C-91.07050598 185.91241379 -92.1087854 185.91198578 -93.17852783 185.9115448 C-94.86132843 185.93019341 -94.86132843 185.93019341 -96.578125 185.94921875 C-98.9518257 185.9415748 -101.32552379 185.93308458 -103.69921875 185.92382812 C-107.44307663 185.92603704 -111.18641572 185.93749201 -114.93017578 185.96508789 C-118.54252681 185.98583208 -122.15330537 185.96975577 -125.765625 185.94921875 C-126.87939514 185.96772385 -127.99316528 185.98622894 -129.14068604 186.0052948 C-135.3712712 185.94669088 -139.10354238 185.35419027 -143.63885498 180.92854309 C-146.55706588 177.15665572 -147.18930255 174.25319625 -147.20492554 169.49441528 C-147.21345551 168.31960602 -147.22198547 167.14479675 -147.23077393 165.93438721 C-147.22986755 164.64909119 -147.22896118 163.36379517 -147.22802734 162.03955078 C-147.2340131 160.66939935 -147.24081876 159.29925129 -147.24838257 157.92910767 C-147.26604507 154.21003396 -147.27073805 150.4910523 -147.27201414 146.77194071 C-147.27343616 144.44749781 -147.27770672 142.12307829 -147.28300858 139.7986412 C-147.30150969 131.686872 -147.30967909 123.57516851 -147.30810547 115.46337891 C-147.30690405 107.90612821 -147.32800615 100.34916311 -147.3595928 92.79198468 C-147.38575823 86.30013059 -147.39647266 79.80836976 -147.39519465 73.31646335 C-147.39468509 69.44072293 -147.4003647 65.56523632 -147.42155075 61.68954849 C-147.44093789 58.04343116 -147.44105485 54.39780964 -147.42651749 50.75167465 C-147.42343481 48.77998195 -147.44010256 46.80828918 -147.45739746 44.83666992 C-147.3799435 33.93779046 -147.3799435 33.93779046 -142.9375 29.25 C-142.24239822 28.47561584 -141.54729645 27.70123169 -140.83113098 26.90338135 C-136.49423807 24.42533978 -132.55143402 24.72331287 -127.6394043 24.79589844 C-126.60479568 24.79531433 -125.57018707 24.79473022 -124.50422668 24.79412842 C-121.08971428 24.79691172 -117.67607837 24.8280166 -114.26171875 24.859375 C-111.89232358 24.86683648 -109.52292223 24.87252985 -107.15351868 24.87652588 C-100.92104009 24.89178935 -94.68893511 24.93107794 -88.456604 24.9753418 C-82.0954697 25.01627874 -75.73427497 25.03453357 -69.37304688 25.0546875 C-56.89436722 25.09757099 -44.41596469 25.16583145 -31.9375 25.25 C-31.76734375 24.00863281 -31.5971875 22.76726563 -31.421875 21.48828125 C-31.1779132 19.84623066 -30.93307529 18.20431006 -30.6875 16.5625 C-30.57792969 15.74587891 -30.46835938 14.92925781 -30.35546875 14.08789062 C-29.58821338 9.10073074 -28.67505605 5.90673899 -24.9375 2.25 C-17.52518245 -1.06081754 -7.91562997 -0.04718706 0 0 Z M13.0625 75.25 C13.0625 99.67 13.0625 124.09 13.0625 149.25 C23.71936415 146.20518167 30.08859975 140.58157543 35.65625 131.03515625 C40.68735501 121.07077327 41.69901449 110.96316979 38.5625 100.1875 C34.66476687 89.77537375 28.0129193 81.41188146 18.0625 76.25 C16.4125 75.92 14.7625 75.59 13.0625 75.25 Z " fill="#4B53BB" transform="translate(146.9375,22.75)"/>
<path d="M0 0 C1.94036133 -0.01160156 1.94036133 -0.01160156 3.91992188 -0.0234375 C22.98363826 0.01517256 22.98363826 0.01517256 27.77685547 3.49438477 C29.45512287 5.78614719 29.84165919 7.72554164 30.37890625 10.51171875 C30.58580078 11.54876953 30.79269531 12.58582031 31.00585938 13.65429688 C31.21017578 14.73775391 31.41449219 15.82121094 31.625 16.9375 C32.04155145 19.06668402 32.45949276 21.19559666 32.87890625 23.32421875 C33.07846924 24.3390332 33.27803223 25.35384766 33.48364258 26.39941406 C35.03490032 35.16404931 35.03490032 35.16404931 40.0625 42.25 C44.87422718 44.80942935 47.77162377 44.2913788 52.9375 42.75 C56.81171587 41.44363057 60.64288854 40.03530402 64.47265625 38.60546875 C65.22369629 38.32960937 65.97473633 38.05375 66.74853516 37.76953125 C68.22106636 37.22535576 69.68855087 36.66727154 71.14990234 36.09375 C75.51982473 34.46523317 78.59270865 33.74325792 83.0625 35.25 C94.31091956 44.29512088 106.72144178 64.85764407 108.45703125 79.6015625 C107.96138797 84.18503599 106.15290435 85.85531464 102.75 88.625 C102.2125415 89.0897876 101.67508301 89.5545752 101.12133789 90.03344727 C99.45422045 91.46390381 97.7643942 92.8611715 96.0625 94.25 C95.53462891 94.68199707 95.00675781 95.11399414 94.46289062 95.55908203 C92.10298416 97.48454437 89.73494319 99.39573112 87.33984375 101.27734375 C84.51674668 103.72273658 82.38345938 105.65966071 81.62890625 109.3984375 C81.62761719 110.13320312 81.62632812 110.86796875 81.625 111.625 C81.59599609 112.71941406 81.59599609 112.71941406 81.56640625 113.8359375 C82.89008739 120.27715755 87.9839992 124.22146221 92.8125 128.1875 C93.7408667 128.97290161 93.7408667 128.97290161 94.68798828 129.77416992 C97.34074401 132.01579362 100.01085561 134.21003173 102.7578125 136.3359375 C103.83675781 137.19058594 103.83675781 137.19058594 104.9375 138.0625 C105.55367187 138.52269531 106.16984375 138.98289063 106.8046875 139.45703125 C108.86524729 142.39428883 108.41416438 144.75148323 108.0625 148.25 C107.18558232 150.88921206 106.28452966 153.24673969 105.125 155.75 C104.81288574 156.43852051 104.50077148 157.12704102 104.17919922 157.83642578 C99.06699196 168.82554025 92.7514189 181.64090139 83.0625 189.25 C78.44968166 190.45464979 75.6348052 190.11192947 71.21875 188.4140625 C70.13722656 188.00929687 69.05570312 187.60453125 67.94140625 187.1875 C66.82636719 186.754375 65.71132812 186.32125 64.5625 185.875 C62.34551478 185.02921373 60.12681221 184.18791251 57.90625 183.3515625 C56.43961914 182.78429443 56.43961914 182.78429443 54.94335938 182.20556641 C50.19737479 180.63134745 47.17815517 179.87181181 42.375 181.5 C38.76167606 183.40338988 38.76167606 183.40338988 36.0625 186.25 C35.24272434 188.79419266 35.24272434 188.79419266 34.78125 191.6953125 C34.57886719 192.77296875 34.37648438 193.850625 34.16796875 194.9609375 C33.96816406 196.08757812 33.76835937 197.21421875 33.5625 198.375 C29.9417796 218.3707204 29.9417796 218.3707204 26.0625 222.25 C17.78665609 224.71884419 9.1131347 224.55327498 0.5625 224.5 C-0.67886719 224.50773438 -1.92023438 224.51546875 -3.19921875 224.5234375 C-22.65143842 224.48244231 -22.65143842 224.48244231 -27.13378906 220.10522461 C-29.22749616 216.79094409 -29.91286125 214.11624616 -30.640625 210.26953125 C-30.76814148 209.61546799 -30.89565796 208.96140472 -31.02703857 208.28752136 C-31.42753399 206.21485389 -31.8075402 204.13901886 -32.1875 202.0625 C-32.45703918 200.6566523 -32.72786026 199.25104973 -33 197.84570312 C-34.9375 187.73026163 -34.9375 187.73026163 -34.9375 185.25 C-33.8230249 185.25112793 -32.7085498 185.25225586 -31.56030273 185.25341797 C-27.4019149 185.24973047 -23.24467732 185.2067907 -19.08666992 185.15234375 C-17.29149818 185.13424172 -15.49618775 185.1266047 -13.70092773 185.12988281 C-11.1107373 185.13275681 -8.52338862 185.09727267 -5.93359375 185.0546875 C-5.13851913 185.06378143 -4.34344452 185.07287537 -3.52427673 185.08224487 C1.84172816 184.94413466 4.82710802 183.62790149 8.6889801 179.86726379 C11.92554518 176.0563401 12.32048417 172.37616004 12.4765625 167.51171875 C12.53457031 165.91166992 12.53457031 165.91166992 12.59375 164.27929688 C12.6246875 163.17650391 12.655625 162.07371094 12.6875 160.9375 C12.72617188 159.81537109 12.76484375 158.69324219 12.8046875 157.53710938 C12.89872011 154.77490148 12.98437341 152.012696 13.0625 149.25 C13.74739502 148.91371582 14.43229004 148.57743164 15.13793945 148.23095703 C16.48698364 147.56362549 16.48698364 147.56362549 17.86328125 146.8828125 C18.75442627 146.44340332 19.64557129 146.00399414 20.5637207 145.55126953 C29.38182371 140.95913577 34.81944942 132.61411018 38 123.3125 C40.87066973 111.9554129 39.1092681 101.44848632 33.40234375 91.296875 C28.33830648 83.68522144 21.81788928 78.16846309 13.0625 75.25 C13.05839111 74.55962646 13.05428223 73.86925293 13.05004883 73.15795898 C13.01695519 70.00029602 12.94629349 66.8445222 12.875 63.6875 C12.86919922 62.60146484 12.86339844 61.51542969 12.85742188 60.39648438 C12.66650306 53.41734108 12.04803981 49.30585772 7.0625 44.25 C4.54967377 43.13043007 4.54967377 43.13043007 1.9375 42.875 C-0.70703125 42.25 -0.70703125 42.25 -2.9375 41.25 C-4.21016648 39.01080675 -4.72587359 36.98006113 -5.30078125 34.4765625 C-6.26439592 31.10686702 -8.25644014 29.39484789 -10.9375 27.25 C-13.59668166 26.36360611 -15.41814641 26.07010975 -18.16796875 25.93359375 C-18.97041016 25.89169922 -19.77285156 25.84980469 -20.59960938 25.80664062 C-21.43298828 25.76732422 -22.26636719 25.72800781 -23.125 25.6875 C-23.96998047 25.64431641 -24.81496094 25.60113281 -25.68554688 25.55664062 C-27.76934433 25.45068482 -29.85340103 25.3498498 -31.9375 25.25 C-31.5400395 22.35034501 -31.12043088 19.45688843 -30.6875 16.5625 C-30.57792969 15.74587891 -30.46835938 14.92925781 -30.35546875 14.08789062 C-29.60086247 9.18294981 -28.95701815 5.51429813 -24.9375 2.25 C-17.09457737 -0.6794962 -8.22967721 -0.04905918 0 0 Z " fill="#7F86EA" transform="translate(146.9375,22.75)"/>
<path d="M0 0 C23.1 0 46.2 0 70 0 C70 4.62 70 9.24 70 14 C60.76 14 51.52 14 42 14 C42 37.1 42 60.2 42 84 C37.38 84 32.76 84 28 84 C28 60.9 28 37.8 28 14 C18.76 14 9.52 14 0 14 C0 9.38 0 4.76 0 0 Z " fill="#FEFEFE" transform="translate(37,86)"/>
<path d="M0 0 C10.02920222 1.25365028 10.02920222 1.25365028 14.61543274 7.03715515 C16.59287506 11.26869736 16.39541844 15.03993417 16.34057617 19.65551758 C16.34123329 21.10501801 16.34123329 21.10501801 16.34190369 22.58380127 C16.33981731 25.77091834 16.31649294 28.95750632 16.29296875 32.14453125 C16.28737227 34.35698662 16.28310242 36.56944571 16.28010559 38.78190613 C16.26866097 44.60002946 16.23919683 50.41792749 16.20599365 56.23596191 C16.17528468 62.17485507 16.16159847 68.11378468 16.14648438 74.05273438 C16.11432697 85.70192181 16.06313503 97.35094216 16 109 C14.64832143 109.34328345 13.29345725 109.67402697 11.9375 110 C10.80634766 110.2784375 10.80634766 110.2784375 9.65234375 110.5625 C7 111 7 111 0 111 C0 74.37 0 37.74 0 0 Z " fill="#000000" transform="translate(144,64)"/>
<path d="M0 0 C0.08756305 3.70818297 0.14058015 7.41609763 0.1875 11.125 C0.21263672 12.17171875 0.23777344 13.2184375 0.26367188 14.296875 C0.31756423 19.97353676 0.25582534 24.12397722 -3 29 C-3.39316406 29.62648437 -3.78632813 30.25296875 -4.19140625 30.8984375 C-7.29491085 34.24067322 -9.97897137 35.15394125 -14.4609375 35.375 C-18.98521847 35.43689658 -23.48360996 35.25807943 -28 35 C-25 33 -25 33 -22.5 31.8125 C-19.21432839 29.43038808 -18.08807853 26.80146906 -17 23 C-16.52431121 19.35667223 -16.40032063 15.73340217 -16.3125 12.0625 C-16.27833984 11.09248047 -16.24417969 10.12246094 -16.20898438 9.12304688 C-16.12711426 6.74881363 -16.05776922 4.37492123 -16 2 C-13.89627599 1.66388432 -11.79200343 1.33120054 -9.6875 1 C-8.51574219 0.814375 -7.34398437 0.62875 -6.13671875 0.4375 C-3 0 -3 0 0 0 Z " fill="#33365E" transform="translate(160,173)"/>
<path d="M0 0 C9.26482213 1.15810277 9.26482213 1.15810277 13 5 C15.57531926 8.65299849 16.36764631 11.06377001 16.29296875 15.51953125 C16.28330078 16.54111328 16.27363281 17.56269531 16.26367188 18.61523438 C16.23853516 19.67033203 16.21339844 20.72542969 16.1875 21.8125 C16.16719727 23.42415039 16.16719727 23.42415039 16.14648438 25.06835938 C16.11122976 27.71245541 16.05742566 30.35629256 16 33 C10.72 32.34 5.44 31.68 0 31 C0 20.77 0 10.54 0 0 Z " fill="#262A56" transform="translate(144,64)"/>
<path d="M0 0 C6.6 0 13.2 0 20 0 C15.47221136 3.01852576 11.19480381 5.04141139 5.6875 4.9375 C3 4 3 4 0 0 Z " fill="#636CD5" transform="translate(62,208)"/>
</svg>
